<svg width="486" height="347" viewBox="0 0 486 347" fill="none" xmlns="http://www.w3.org/2000/svg">
<g clip-path="url(#clip0_3_50)">
<path d="M114.26 241.188C110.528 241.176 106.812 240.694 103.2 239.756L102.488 239.558L101.828 239.227C77.9498 227.238 57.8054 211.403 41.9538 192.161C28.832 176.139 18.6017 157.948 11.7229 138.406C3.49681 115.009 -0.460727 90.3211 0.0391745 65.5213C0.0492616 65.0008 0.0577984 64.5988 0.0577984 64.3219C0.0577984 52.2666 6.74017 41.6889 17.0819 37.3738C24.9969 34.0713 96.8618 4.51265 102.054 2.37696C111.833 -2.5296 122.265 1.56569 123.934 2.28185C127.679 3.81498 194.114 31.0252 208.47 37.8709C223.266 44.9262 227.214 57.6009 227.214 63.9778C227.214 92.8478 222.221 119.829 212.373 144.172C204.42 163.877 193.148 182.067 179.049 197.952C151.846 228.608 124.635 239.476 124.372 239.571C121.12 240.692 117.699 241.239 114.26 241.188ZM107.861 225.315C110.22 225.845 115.651 226.64 119.191 225.346C123.689 223.704 146.463 211.878 167.746 187.894C197.151 154.758 212.071 113.102 212.093 64.0843C212.04 63.0912 211.336 56.0083 201.969 51.542C187.891 44.8288 118.838 16.5539 118.142 16.2689L117.951 16.1879C116.504 15.5807 111.899 14.3016 108.724 15.9675L108.089 16.2642C107.319 16.5808 31.0336 47.9562 22.8977 51.3508C17.2064 53.7255 15.1786 59.6083 15.1786 64.322C15.1786 64.6664 15.1697 65.1675 15.1571 65.8151C14.5069 99.3548 22.2574 181.885 107.861 225.315Z" fill="#3F3D56"/>
<path d="M105.216 9.26093C105.216 9.26093 28.2374 40.921 19.9897 44.3623C11.742 47.8036 7.61812 56.0628 7.61812 64.3219C7.61812 72.5811 1.43234 180.352 105.216 232.459C105.216 232.459 114.635 235.069 121.782 232.459C128.928 229.849 219.653 185.8 219.653 63.9778C219.653 63.9778 219.653 51.5891 205.22 44.7064C190.786 37.8238 121.003 9.26093 121.003 9.26093C121.003 9.26093 112.433 5.47548 105.216 9.26093Z" fill="#007EB4"/>
<path opacity="0.1" d="M113.464 34.0384V202.934C113.464 202.934 35.7978 165.496 36.4851 67.075L113.464 34.0384Z" fill="black"/>
<path d="M114.477 155.426L89.7361 123.571L104.124 112.365L115.838 127.448L155.412 85.6139L168.646 98.1695L114.477 155.426Z" fill="white"/>
<path d="M324.688 337.634L333.864 337.633L338.23 302.189L324.686 302.19L324.688 337.634Z" fill="#FFB8B8"/>
<path d="M322.347 334.634L340.419 334.633H340.42C343.474 334.633 346.403 335.848 348.563 338.011C350.723 340.174 351.936 343.107 351.937 346.166V346.541L322.347 346.542L322.347 334.634Z" fill="#2F2E41"/>
<path d="M355.542 337.634L364.718 337.633L369.084 302.189L355.54 302.19L355.542 337.634Z" fill="#FFB8B8"/>
<path d="M353.201 334.634L371.273 334.633H371.274C374.328 334.633 377.258 335.848 379.418 338.011C381.577 340.174 382.791 343.107 382.791 346.166V346.541L353.202 346.542L353.201 334.634Z" fill="#2F2E41"/>
<path d="M339.111 213.161L341.312 325.61L323.505 324.504L311.152 252.88L307.25 204.045L339.111 213.161Z" fill="#2F2E41"/>
<path d="M369.671 194.279L372.167 327.392L351.399 326.798L346.914 247.671L339.111 219.022L307.25 204.046L312.452 168.234L359.268 167.583L369.671 194.279Z" fill="#2F2E41"/>
<path d="M333.867 75.1232C342.662 75.1232 349.791 67.9836 349.791 59.1765C349.791 50.3694 342.662 43.2298 333.867 43.2298C325.072 43.2298 317.942 50.3694 317.942 59.1765C317.942 67.9836 325.072 75.1232 333.867 75.1232Z" fill="#FFB8B8"/>
<path d="M347.075 81.8409L349.514 85.5414L356.017 103.773L350.815 174.745L320.254 175.397L316.353 94.0055L324.526 83.7761L347.075 81.8409Z" fill="#CCCCCC"/>
<path d="M303.999 95.9592L298.797 95.3081C298.797 95.3081 297.497 95.9592 296.846 100.517C296.196 105.075 288.394 145.445 288.394 145.445L298.797 194.93L310.501 179.303L303.349 151.956L310.501 124.609L303.999 95.9592Z" fill="#2F2E41"/>
<path d="M370.322 95.3085H374.223L383.976 148.049L374.873 189.07L365.77 174.094L368.371 157.816L367.071 143.492L362.519 135.026L370.322 95.3085Z" fill="#2F2E41"/>
<path d="M343.277 59.1765L340.381 58.4517C340.381 58.4517 338.21 46.1292 333.143 47.5789C328.076 49.0286 315.047 50.4783 315.047 44.6795C315.047 38.8807 327.352 33.8067 334.591 34.5316C341.829 35.2564 351.074 37.6611 353.411 48.3037C357.157 65.3644 345.681 69.6736 345.681 69.6736L345.872 69.0524C346.403 67.3277 346.44 65.4888 345.982 63.7436C345.523 61.9984 344.586 60.4164 343.277 59.1765Z" fill="#2F2E41"/>
<path d="M299.447 95.3081L320.254 86.8434L325.131 83.2623L339.761 148.049L346.589 81.3089L373.573 95.3081L364.47 139.584L363.169 156.514L367.071 170.187C367.071 170.187 380.725 179.954 376.174 190.372C371.622 200.79 366.42 201.441 366.42 201.441C366.42 201.441 344.313 180.605 343.012 175.396C341.712 170.187 339.761 161.072 339.761 161.072C339.761 161.072 328.707 202.744 315.703 202.092C302.699 201.441 302.699 187.768 302.699 187.768L305.95 173.443L311.151 158.467L308.551 133.724L299.447 95.3081Z" fill="#2F2E41"/>
</g>
<defs>
<clipPath id="clip0_3_50">
<rect width="486" height="347" fill="white"/>
</clipPath>
</defs>
</svg>
